# xmcd
#
# Track frame offsets: 
#        182
#        11695
#        26695
#        38020
#        52945
#        63145
#        73795
#        85420
#        95470
#        109045
#        120145
#        131770
#        143695
#        153820
#        166570
#        180820
#        189970
#        199270
#        209095
#        224770
#        235570
#        248245
#        256645
#        269170
#        282370
#
# Disc length: 3910 seconds
#
# Revision: 0
# Processed by: cddbd v1.5.1PL2 Copyright (c) Steve Scherf et al.
# Submitted via: ExactAudioCopy v0.95b4
#
DISCID=560f4419
DTITLE=Various Artist - A Ton of Country
DYEAR=1900
DGENRE=Country
TTITLE0=Charlie Rich - Rollin' with the Flow
TTITLE1=B. J. Thomas - (Hey Won't You Play) Another Somebody Done Some
TTITLE1=body Wrong Song
TTITLE2=Donna Fargo - Superman
TTITLE3=Jeannie C Riley - Harper Valley PTA
TTITLE4=David Houston - With One Exception
TTITLE5=Buck Owens - Act Naturally
TTITLE6=Billy Walker - Charlie's Shoes
TTITLE7=Leroy Van Dyke - Walk On By
TTITLE8=Jimmy Dean - Big Bad John
TTITLE9=Kitty Wells - Heartbreak U.S.A.
TTITLE10=George Jones - White Lightnin'
TTITLE11=Stonewall Jackson - Waterloo
TTITLE12=Ferlin Husky - Gone
TTITLE13=Freddy Fender - You'll Lose a Good Thing
TTITLE14=Bobby Helms - My Special Angel
TTITLE15=Webb Pierce - Honky Tonk Song
TTITLE16=Faron Young - Live Fast, Love Hard, Die Young
TTITLE17=Merle Travis - So Round, So Firm, So Fully Packed
TTITLE18=Ernest Tubb - Soldiers Last Letter (live)
TTITLE19=Lynn Anderson - Heaven's Just a Sin Away
TTITLE20=Billy Walker - Circumstances
TTITLE21=Del Reeves - Lay a Little Lovin' on Me
TTITLE22=Norma Jean - Let's Go All the Way
TTITLE23=Mac Davis - Burnin' Thing
TTITLE24=Stonewall Jackson - I Need You Real Bad
EXTD=
EXTT0=
EXTT1=
EXTT2=
EXTT3=
EXTT4=
EXTT5=
EXTT6=
EXTT7=
EXTT8=
EXTT9=
EXTT10=
EXTT11=
EXTT12=
EXTT13=
EXTT14=
EXTT15=
EXTT16=
EXTT17=
EXTT18=
EXTT19=
EXTT20=
EXTT21=
EXTT22=
EXTT23=
EXTT24=
PLAYORDER=
